<?xml version="1.0" encoding="utf-8"?>
<!-- Generator: Adobe Illustrator 26.0.1, SVG Export Plug-In . SVG Version: 6.00 Build 0)  -->
<svg version="1.1" id="Layer_1" xmlns="http://www.w3.org/2000/svg" xmlns:xlink="http://www.w3.org/1999/xlink" x="0px" y="0px"
	 viewBox="0 0 841.89 595.28" style="enable-background:new 0 0 841.89 595.28;" xml:space="preserve">
<style type="text/css">
	.st0{fill-rule:evenodd;clip-rule:evenodd;fill:#25C1DE;}
	.st1{fill-rule:evenodd;clip-rule:evenodd;fill:#414042;}
	.st2{fill:#2AC1D9;}
	.st3{fill:#414042;}
</style>
<g>
	<rect x="200.7" y="179.35" class="st0" width="57.67" height="28.84"/>
	<rect x="171.88" y="208.17" class="st0" width="28.83" height="57.67"/>
	<rect x="229.23" y="236.95" class="st1" width="28.54" height="28.82"/>
	<path class="st2" d="M651.7,231.28c-0.14-3.35-1.06-6.06-2.78-8.12c-1.71-2.06-4.1-3.09-7.17-3.09c-3.49,0-6.14,0.98-7.96,2.93
		c-1.82,1.96-2.9,4.71-3.25,8.27H651.7z M584.42,221.33h-8.42c-1.86-0.88-1.85-9.84-0.49-11.26l9.59,0l-0.05-15.87
		c2.62-0.9,11.41-1.07,14.04,0v15.82h12.67c0.21,1.05,0.35,1.99,0.42,2.83c0.07,0.84,0.1,1.71,0.1,2.62c0,0.98-0.03,1.92-0.1,2.83
		c-0.07,0.91-0.21,1.92-0.42,3.04h-12.67v21.26c0,2.16,0.17,3.91,0.52,5.24c0.35,1.33,0.86,2.37,1.52,3.14
		c0.66,0.77,1.49,1.29,2.46,1.57c0.98,0.28,2.13,0.42,3.46,0.42c1.05,0,2.08-0.09,3.09-0.26s1.9-0.33,2.67-0.47
		c0.49,1.33,0.84,2.71,1.05,4.14c0.21,1.43,0.31,2.71,0.31,3.82c0,0.77-0.02,1.41-0.05,1.94c-0.03,0.52-0.09,1.03-0.16,1.52
		c-3.21,0.77-6.53,1.15-9.95,1.15c-6.35,0-11.21-1.49-14.56-4.45c-3.35-2.97-5.03-7.8-5.03-14.51V221.33z M515.44,210.02
		c1.61-0.35,3.02-0.54,4.24-0.58c1.22-0.03,2.36-0.05,3.4-0.05c1.4,0,2.83,0.04,4.29,0.11c1.47,0.07,2.79,0.24,3.98,0.52
		l12.31,43.54l11.78-43.54c2.3-0.42,4.68-0.63,7.12-0.63c1.05,0,2.17,0.02,3.35,0.05c1.19,0.04,2.65,0.23,4.4,0.58l-19.36,64.09
		c-0.8,2.67-1.83,4.86-2.98,6.6c-1.15,1.75-2.46,3.11-3.93,4.08c-1.47,0.98-3.11,1.66-4.92,2.04c-1.81,0.38-3.77,0.58-5.86,0.58
		c-1.96,0-3.72-0.12-5.29-0.37c-1.57-0.25-3.12-0.58-4.66-1c-0.07-0.35-0.11-0.65-0.11-0.89c0-0.25,0-0.51,0-0.79
		c0-1.68,0.19-3.27,0.58-4.76c0.38-1.5,0.85-2.95,1.41-4.35c0.63,0.21,1.47,0.4,2.51,0.58c1.05,0.17,2.1,0.26,3.14,0.26
		c0.84,0,1.75,0.21,2.51-0.16c5.09-2.49-3.61-23.36-5.32-28.73C523.01,231.39,516.86,214.88,515.44,210.02z M480.98,252.44
		c0.84,0.28,1.73,0.45,2.67,0.53c0.94,0.07,1.9,0.1,2.88,0.1c4.54,0,8.1-1.33,10.68-3.98c2.58-2.65,3.88-6.81,3.88-12.46
		c0-5.03-0.8-8.85-2.41-11.47c-1.61-2.62-4.33-3.93-8.17-3.93c-2.79,0-5.08,0.92-6.86,2.78c-1.78,1.85-2.67,4.77-2.67,8.75V252.44z
		 M466.21,187.61c2.51-0.42,4.96-0.63,7.33-0.63c2.44,0,4.92,0.21,7.44,0.63v27.65c1.05-1.89,2.79-3.44,5.24-4.66
		c2.44-1.22,5.24-1.83,8.38-1.83s6.06,0.56,8.75,1.68s5.01,2.81,6.96,5.08c1.96,2.27,3.49,5.11,4.61,8.54
		c1.12,3.42,1.68,7.47,1.68,12.15c0,4.54-0.7,8.6-2.09,12.2c-1.4,3.6-3.42,6.65-6.08,9.16c-2.65,2.51-5.9,4.45-9.74,5.81
		c-3.84,1.36-8.17,2.04-12.99,2.04c-1.54,0-3.16-0.07-4.87-0.21c-1.71-0.14-3.44-0.33-5.18-0.58c-1.75-0.25-3.42-0.56-5.03-0.94
		c-1.61-0.38-3.07-0.82-4.4-1.31V187.61z M630.44,241.65c0.28,4.19,1.74,7.23,4.4,9.11c2.65,1.88,6.14,2.83,10.47,2.83
		c2.37,0,4.8-0.23,7.28-0.68c2.48-0.45,4.84-1.1,7.07-1.94c0.77,1.4,1.43,3.07,1.99,5.03c0.56,1.96,0.87,4.05,0.94,6.28
		c-5.45,2.1-11.59,3.14-18.43,3.14c-5.03,0-9.34-0.7-12.93-2.09c-3.6-1.39-6.53-3.33-8.8-5.81c-2.27-2.48-3.95-5.43-5.03-8.85
		c-1.08-3.42-1.62-7.16-1.62-11.21c0-3.98,0.56-7.71,1.68-11.21c1.12-3.49,2.78-6.53,4.97-9.11c2.2-2.58,4.92-4.63,8.17-6.13
		c3.25-1.5,7.03-2.25,11.36-2.25c3.77,0,7.12,0.66,10.05,1.99c2.93,1.33,5.43,3.14,7.49,5.45c2.06,2.3,3.61,5.05,4.66,8.22
		c1.05,3.18,1.57,6.58,1.57,10.21c0,1.33-0.05,2.63-0.16,3.93c-0.1,1.29-0.23,2.32-0.37,3.09H630.44z"/>
	<path class="st3" d="M404.62,187.61c2.51-0.42,4.99-0.63,7.44-0.63c2.37,0,4.82,0.21,7.33,0.63v54.98c0,2.16,0.12,3.91,0.37,5.24
		c0.24,1.33,0.63,2.36,1.15,3.09c0.52,0.73,1.21,1.24,2.04,1.52c0.84,0.28,1.89,0.42,3.14,0.42c0.56,0,1.17-0.03,1.83-0.1
		c0.66-0.07,1.31-0.17,1.94-0.32c0.77,2.86,1.15,5.66,1.15,8.38c0,0.56,0,1.06,0,1.52s-0.07,0.96-0.21,1.52
		c-1.12,0.35-2.46,0.59-4.03,0.73c-1.57,0.14-3.02,0.21-4.35,0.21c-5.38,0-9.69-1.49-12.93-4.45c-3.25-2.97-4.87-7.8-4.87-14.51
		V187.61z M380.11,200.91c-0.42-2.37-0.63-4.71-0.63-7.02c0-2.24,0.21-4.57,0.63-7.02c1.19-0.21,2.46-0.37,3.82-0.47
		c1.36-0.11,2.6-0.16,3.72-0.16c1.19,0,2.48,0.05,3.88,0.16c1.4,0.1,2.69,0.26,3.88,0.47c0.21,1.19,0.35,2.36,0.42,3.51
		c0.07,1.15,0.1,2.32,0.1,3.51c0,1.12-0.03,2.27-0.1,3.46c-0.07,1.19-0.21,2.37-0.42,3.56c-1.19,0.21-2.46,0.35-3.82,0.42
		c-1.36,0.07-2.63,0.1-3.82,0.1c-1.12,0-2.37-0.04-3.77-0.1C382.59,201.26,381.3,201.12,380.11,200.91z M380.88,210.02h14.56v54.15
		c-2.51,0.42-4.96,0.63-7.33,0.63c-2.3,0-4.71-0.21-7.23-0.63v-27.75v-15.08V210.02z M344.78,235.79l13.41-25.76
		c2.72-0.42,5.48-0.63,8.27-0.63c2.65,0,5.24,0.21,7.75,0.63l-13.83,25.03l16.13,29.12c-2.86,0.42-5.62,0.63-8.27,0.63
		c-2.44,0-5.03-0.21-7.75-0.63L344.78,235.79z M327.92,187.61c2.37-0.42,4.82-0.63,7.33-0.63c2.51,0,4.99,0.21,7.44,0.63v76.56
		c-2.44,0.42-4.92,0.63-7.44,0.63c-2.51,0-4.96-0.21-7.33-0.63V187.61z M296.68,240.6c-3.9-1.13-6.96-2.78-9.16-4.98
		c-2.2-2.2-3.3-5.5-3.3-9.9c0-5.31,1.9-9.46,5.71-12.46c3.8-3,8.99-4.5,15.55-4.5c2.72,0,5.41,0.24,8.06,0.73
		c2.65,0.49,5.34,1.22,8.06,2.2c-0.14,1.82-0.49,3.7-1.05,5.66c-0.56,1.96-1.22,3.67-1.99,5.13c-1.68-0.7-3.53-1.31-5.55-1.83
		c-2.02-0.52-4.15-0.79-6.39-0.79c-2.37,0-4.22,0.37-5.55,1.1c-1.33,0.73-1.99,1.9-1.99,3.51c0,1.54,0.47,2.62,1.41,3.25
		c0.94,0.63,2.28,1.26,4.03,1.78l5.97,1.78c1.95,0.58,3.72,1.24,5.29,2.04c1.57,0.8,2.92,1.8,4.03,2.99
		c1.12,1.19,1.99,2.65,2.62,4.4c0.63,1.74,0.94,3.88,0.94,6.39c0,2.58-0.54,4.99-1.62,7.23c-1.08,2.23-2.65,4.17-4.71,5.81
		c-2.06,1.64-4.56,2.93-7.49,3.88c-2.93,0.94-6.25,1.41-9.95,1.41c-1.68,0-3.21-0.05-4.61-0.16c-1.4-0.1-2.74-0.28-4.03-0.52
		c-1.29-0.25-2.57-0.54-3.82-0.89c-1.26-0.35-2.62-0.8-4.08-1.36c0.14-1.88,0.47-3.79,0.99-5.71c0.52-1.92,1.2-3.79,2.04-5.6
		c2.3,0.91,4.49,1.59,6.55,2.04c2.06,0.45,4.21,0.68,6.44,0.68c0.98,0,2.04-0.09,3.19-0.26c1.15-0.17,2.22-0.49,3.19-0.94
		c0.98-0.45,1.8-1.05,2.46-1.78c0.66-0.73,0.99-1.69,0.99-2.88c0-1.68-0.51-2.88-1.52-3.61c-1.01-0.73-2.42-1.41-4.24-1.94
		L296.68,240.6z M434.23,187.61c2.51-0.42,4.99-0.63,7.44-0.63c2.37,0,4.82,0.21,7.33,0.63v54.98c0,2.16,0.12,3.91,0.37,5.24
		c0.24,1.33,0.63,2.36,1.15,3.09c0.52,0.73,1.21,1.24,2.04,1.52c0.84,0.28,1.89,0.42,3.14,0.42c0.56,0,1.17-0.03,1.83-0.1
		c0.66-0.07,1.31-0.17,1.94-0.32c0.77,2.86,1.15,5.66,1.15,8.38c0,0.56,0,1.06,0,1.52s-0.07,0.96-0.21,1.52
		c-1.12,0.35-2.46,0.59-4.03,0.73c-1.57,0.14-3.02,0.21-4.35,0.21c-5.38,0-9.69-1.49-12.93-4.45c-3.25-2.97-4.87-7.8-4.87-14.51
		V187.61z"/>
</g>
</svg>
